<svg xmlns="http://www.w3.org/2000/svg" xmlns:xlink="http://www.w3.org/1999/xlink" width="1920" zoomAndPan="magnify" viewBox="0 0 1440 809.999993" height="1080" preserveAspectRatio="xMidYMid meet" version="1.0"><defs><g/><clipPath id="531b64dced"><path d="M 604.5 289.5 L 835.5 289.5 L 835.5 520.5 L 604.5 520.5 Z M 604.5 289.5 " clip-rule="nonzero"/></clipPath><clipPath id="0a2b0c6962"><path d="M 617.699219 302.699219 L 821.699219 302.699219 L 821.699219 506.699219 L 617.699219 506.699219 Z M 617.699219 302.699219 " clip-rule="nonzero"/></clipPath><clipPath id="4ddde3cdce"><path d="M 717.078125 493.5 L 722.320312 493.5 L 722.320312 498.742188 L 717.078125 498.742188 Z M 717.078125 493.5 " clip-rule="nonzero"/></clipPath><clipPath id="c761428554"><path d="M 719.699219 493.5 C 718.253906 493.5 717.078125 494.671875 717.078125 496.121094 C 717.078125 497.570312 718.253906 498.742188 719.699219 498.742188 C 721.148438 498.742188 722.320312 497.570312 722.320312 496.121094 C 722.320312 494.671875 721.148438 493.5 719.699219 493.5 " clip-rule="nonzero"/></clipPath></defs><g clip-path="url(#531b64dced)"><path fill="#000000" d="M 720 520.5 C 656.191406 520.5 604.5 468.453125 604.5 405 C 604.5 341.546875 656.191406 289.5 720 289.5 C 783.808594 289.5 835.5 341.191406 835.5 405 C 835.5 468.808594 783.453125 520.5 720 520.5 Z M 720 296.628906 C 660.109375 296.628906 611.628906 345.109375 611.628906 405 C 611.628906 464.890625 660.109375 513.371094 720 513.371094 C 779.890625 513.371094 828.371094 464.890625 828.371094 405 C 828.371094 345.109375 779.53125 296.628906 720 296.628906 Z M 720 296.628906 " fill-opacity="1" fill-rule="nonzero"/></g><g clip-path="url(#0a2b0c6962)"><path fill="#000000" d="M 719.699219 506.699219 C 663.472656 506.699219 617.699219 460.925781 617.699219 404.699219 C 617.699219 348.472656 663.472656 302.699219 719.699219 302.699219 C 775.925781 302.699219 821.699219 348.472656 821.699219 404.699219 C 821.699219 460.925781 775.925781 506.699219 719.699219 506.699219 Z M 719.699219 304.207031 C 664.277344 304.207031 619.207031 349.277344 619.207031 404.699219 C 619.207031 460.121094 664.277344 505.191406 719.699219 505.191406 C 775.121094 505.191406 820.191406 460.121094 820.191406 404.699219 C 820.191406 349.277344 775.121094 304.207031 719.699219 304.207031 Z M 719.699219 304.207031 " fill-opacity="1" fill-rule="nonzero"/></g><g clip-path="url(#4ddde3cdce)"><g clip-path="url(#c761428554)"><path fill="#000000" d="M 717.078125 493.5 L 722.320312 493.5 L 722.320312 498.742188 L 717.078125 498.742188 Z M 717.078125 493.5 " fill-opacity="1" fill-rule="nonzero"/></g></g><g fill="#000000" fill-opacity="1"><g transform="translate(662.489035, 416.324999)"><g><path d="M 17.71875 -14.25 L 17.71875 -22.84375 L 22.21875 -22.84375 L 22.21875 0 L 17.71875 0 L 17.71875 -10.40625 L 7.484375 -10.40625 L 7.484375 0 L 2.96875 0 L 2.96875 -22.84375 L 7.484375 -22.84375 L 7.484375 -14.25 Z M 17.71875 -14.25 "/></g></g></g><g fill="#000000" fill-opacity="1"><g transform="translate(687.686006, 416.324999)"><g><path d="M 11.1875 -22.84375 C 14.894531 -22.84375 17.722656 -21.882812 19.671875 -19.96875 C 21.628906 -18.050781 22.609375 -15.203125 22.609375 -11.421875 C 22.609375 -7.648438 21.628906 -4.800781 19.671875 -2.875 C 17.722656 -0.957031 14.894531 0 11.1875 0 L 2.96875 0 L 2.96875 -22.84375 Z M 10.921875 -3.796875 C 13.273438 -3.796875 15.035156 -4.394531 16.203125 -5.59375 C 17.367188 -6.800781 17.953125 -8.742188 17.953125 -11.421875 C 17.953125 -14.097656 17.367188 -16.035156 16.203125 -17.234375 C 15.035156 -18.441406 13.273438 -19.046875 10.921875 -19.046875 L 7.484375 -19.046875 L 7.484375 -3.796875 Z M 10.921875 -3.796875 "/></g></g></g><g fill="#000000" fill-opacity="1"><g transform="translate(712.101918, 416.324999)"><g><path d="M 7.484375 -10.03125 L 7.484375 -3.78125 L 18.390625 -3.78125 L 18.390625 0 L 2.96875 0 L 2.96875 -22.84375 L 18.140625 -22.84375 L 18.140625 -19.0625 L 7.484375 -19.0625 L 7.484375 -13.71875 L 16.796875 -13.71875 L 16.796875 -10.03125 Z M 7.484375 -10.03125 "/></g></g></g><g fill="#000000" fill-opacity="1"><g transform="translate(731.737747, 416.324999)"><g><path d="M 11.796875 -22.84375 C 13.429688 -22.84375 14.828125 -22.539062 15.984375 -21.9375 C 17.148438 -21.34375 18.03125 -20.503906 18.625 -19.421875 C 19.21875 -18.347656 19.515625 -17.097656 19.515625 -15.671875 C 19.515625 -14.242188 19.21875 -12.992188 18.625 -11.921875 C 18.03125 -10.847656 17.148438 -10.007812 15.984375 -9.40625 C 14.828125 -8.8125 13.429688 -8.515625 11.796875 -8.515625 L 7.484375 -8.515625 L 7.484375 0 L 2.96875 0 L 2.96875 -22.84375 Z M 11.203125 -12.09375 C 13.710938 -12.09375 14.96875 -13.285156 14.96875 -15.671875 C 14.96875 -18.066406 13.710938 -19.265625 11.203125 -19.265625 L 7.484375 -19.265625 L 7.484375 -12.09375 Z M 11.203125 -12.09375 "/></g></g></g><g fill="#000000" fill-opacity="1"><g transform="translate(752.607649, 416.324999)"><g><path d="M 12.453125 0.328125 C 10.359375 0.328125 8.507812 -0.0976562 6.90625 -0.953125 C 5.3125 -1.804688 4.0625 -3.109375 3.15625 -4.859375 C 2.25 -6.617188 1.796875 -8.804688 1.796875 -11.421875 C 1.796875 -14.035156 2.25 -16.21875 3.15625 -17.96875 C 4.0625 -19.726562 5.3125 -21.035156 6.90625 -21.890625 C 8.507812 -22.742188 10.359375 -23.171875 12.453125 -23.171875 C 14.546875 -23.171875 16.390625 -22.742188 17.984375 -21.890625 C 19.578125 -21.046875 20.820312 -19.742188 21.71875 -17.984375 C 22.625 -16.222656 23.078125 -14.035156 23.078125 -11.421875 C 23.078125 -8.804688 22.625 -6.617188 21.71875 -4.859375 C 20.820312 -3.097656 19.578125 -1.789062 17.984375 -0.9375 C 16.390625 -0.09375 14.546875 0.328125 12.453125 0.328125 Z M 12.453125 -3.59375 C 14.390625 -3.59375 15.867188 -4.210938 16.890625 -5.453125 C 17.910156 -6.703125 18.421875 -8.691406 18.421875 -11.421875 C 18.421875 -14.148438 17.910156 -16.140625 16.890625 -17.390625 C 15.867188 -18.640625 14.390625 -19.265625 12.453125 -19.265625 C 10.503906 -19.265625 9.015625 -18.640625 7.984375 -17.390625 C 6.960938 -16.140625 6.453125 -14.148438 6.453125 -11.421875 C 6.453125 -8.691406 6.960938 -6.703125 7.984375 -5.453125 C 9.015625 -4.210938 10.503906 -3.59375 12.453125 -3.59375 Z M 12.453125 -3.59375 "/></g></g></g><g fill="#000000" fill-opacity="1"><g transform="translate(708.597299, 488.421231)"><g><path d="M -8.4375 4.328125 L -9.15625 7.84375 L -11 7.46875 L -9.078125 -1.859375 L -7.234375 -1.484375 L -8.109375 2.765625 L -3.9375 3.625 L -3.0625 -0.625 L -1.203125 -0.25 L -3.125 9.078125 L -4.984375 8.703125 L -4.265625 5.1875 Z M -8.4375 4.328125 "/></g></g></g><g fill="#000000" fill-opacity="1"><g transform="translate(697.835226, 486.129279)"><g><path d="M -1.171875 -0.390625 L -4.203125 8.640625 L -7.828125 7.421875 C -8.765625 7.109375 -9.394531 6.65625 -9.71875 6.0625 C -10.050781 5.46875 -10.09375 4.796875 -9.84375 4.046875 C -9.65625 3.492188 -9.363281 3.085938 -8.96875 2.828125 C -8.582031 2.566406 -8.082031 2.441406 -7.46875 2.453125 L -7.421875 2.328125 C -7.671875 2.085938 -7.835938 1.816406 -7.921875 1.515625 C -8.015625 1.222656 -8.0625 0.816406 -8.0625 0.296875 L -8.0625 -2.703125 L -6.21875 -2.09375 L -6.234375 0.90625 C -6.242188 1.207031 -6.210938 1.453125 -6.140625 1.640625 C -6.078125 1.835938 -5.972656 2 -5.828125 2.125 C -5.679688 2.25 -5.460938 2.359375 -5.171875 2.453125 L -4.234375 2.765625 L -2.96875 -1 Z M -6.3125 3.640625 C -7.175781 3.347656 -7.742188 3.609375 -8.015625 4.421875 C -8.296875 5.234375 -8.003906 5.785156 -7.140625 6.078125 L -5.53125 6.609375 L -4.703125 4.171875 Z M -6.3125 3.640625 "/></g></g></g><g fill="#000000" fill-opacity="1"><g transform="translate(688.906196, 483.102337)"><g><path d="M -5.125 -2.390625 L -3.078125 -1.4375 L -4.1875 8.5625 L -6 7.71875 L -5.09375 0.296875 L -5.234375 0.21875 L -10.296875 5.703125 L -12.078125 4.890625 Z M -5.125 -2.390625 "/></g></g></g><g fill="#000000" fill-opacity="1"><g transform="translate(680.247592, 479.033241)"><g><path d="M -7.78125 -4.796875 L -6.09375 -3.75 L -6.640625 -1.5 L -3.53125 0.40625 L -1.765625 -1.09375 L -0.125 -0.078125 L -7.921875 6.3125 L -9.96875 5.046875 Z M -7.8125 4.03125 L -4.796875 1.484375 L -7.03125 0.109375 L -7.9375 3.953125 Z M -7.8125 4.03125 "/></g></g></g><g fill="#000000" fill-opacity="1"><g transform="translate(671.922866, 473.82419)"><g><path d="M -11.875 2.84375 L -10.90625 1.578125 L -8.734375 3.265625 L -3.859375 -3 L -2.375 -1.84375 L -7.25 4.421875 L -5.078125 6.109375 L -6.046875 7.375 Z M -11.875 2.84375 "/></g></g></g><g fill="#000000" fill-opacity="1"><g transform="translate(665.250243, 468.611098)"><g><path d="M -2.953125 -3.03125 C -2.484375 -2.570312 -2.117188 -2.101562 -1.859375 -1.625 C -1.597656 -1.144531 -1.429688 -0.691406 -1.359375 -0.265625 C -1.285156 0.160156 -1.300781 0.550781 -1.40625 0.90625 L -3.03125 1.109375 L -3.140625 1 C -3.054688 0.488281 -3.085938 -0.0078125 -3.234375 -0.5 C -3.378906 -0.988281 -3.660156 -1.4375 -4.078125 -1.84375 C -4.453125 -2.195312 -4.800781 -2.382812 -5.125 -2.40625 C -5.457031 -2.425781 -5.753906 -2.300781 -6.015625 -2.03125 C -6.171875 -1.863281 -6.269531 -1.695312 -6.3125 -1.53125 C -6.351562 -1.363281 -6.34375 -1.175781 -6.28125 -0.96875 C -6.226562 -0.757812 -6.109375 -0.515625 -5.921875 -0.234375 L -5.234375 0.8125 C -4.742188 1.550781 -4.503906 2.226562 -4.515625 2.84375 C -4.523438 3.457031 -4.785156 4.03125 -5.296875 4.5625 C -5.671875 4.945312 -6.09375 5.191406 -6.5625 5.296875 C -7.039062 5.410156 -7.539062 5.375 -8.0625 5.1875 C -8.582031 5 -9.101562 4.65625 -9.625 4.15625 C -10.164062 3.644531 -10.554688 3.140625 -10.796875 2.640625 C -11.046875 2.140625 -11.160156 1.617188 -11.140625 1.078125 L -9.59375 0.796875 L -9.484375 0.90625 C -9.472656 1.300781 -9.390625 1.664062 -9.234375 2 C -9.078125 2.34375 -8.835938 2.671875 -8.515625 2.984375 C -8.148438 3.335938 -7.804688 3.539062 -7.484375 3.59375 C -7.160156 3.65625 -6.890625 3.570312 -6.671875 3.34375 C -6.460938 3.125 -6.363281 2.882812 -6.375 2.625 C -6.394531 2.375 -6.539062 2.046875 -6.8125 1.640625 L -7.53125 0.578125 C -8.0625 -0.191406 -8.316406 -0.890625 -8.296875 -1.515625 C -8.273438 -2.140625 -8.003906 -2.722656 -7.484375 -3.265625 C -7.078125 -3.691406 -6.625 -3.976562 -6.125 -4.125 C -5.632812 -4.28125 -5.117188 -4.265625 -4.578125 -4.078125 C -4.035156 -3.890625 -3.492188 -3.539062 -2.953125 -3.03125 Z M -2.953125 -3.03125 "/></g></g></g><g fill="#000000" fill-opacity="1"><g transform="translate(658.952481, 462.567849)"><g><path d="M -0.796875 -0.9375 L -8.09375 5.203125 L -9.3125 3.75 L -6.328125 1.25 L -6.453125 1.09375 L -11.5 1.15625 L -12.734375 -0.3125 L -12.59375 -0.421875 L -7.03125 -0.546875 L -5.796875 -6.640625 L -5.671875 -6.734375 L -4.296875 -5.109375 L -5.28125 0.09375 L -5.15625 0.25 L -2.015625 -2.390625 Z M -0.796875 -0.9375 "/></g></g></g><g fill="#000000" fill-opacity="1"><g transform="translate(652.94979, 455.465567)"><g><path d="M -2.71875 -4.421875 C -2.238281 -3.691406 -1.96875 -2.945312 -1.90625 -2.1875 C -1.84375 -1.4375 -2.007812 -0.703125 -2.40625 0.015625 C -2.8125 0.734375 -3.472656 1.390625 -4.390625 1.984375 C -5.296875 2.578125 -6.160156 2.914062 -6.984375 3 C -7.804688 3.082031 -8.546875 2.941406 -9.203125 2.578125 C -9.867188 2.222656 -10.441406 1.679688 -10.921875 0.953125 C -11.398438 0.222656 -11.671875 -0.515625 -11.734375 -1.265625 C -11.804688 -2.023438 -11.640625 -2.757812 -11.234375 -3.46875 C -10.828125 -4.1875 -10.171875 -4.84375 -9.265625 -5.4375 C -8.347656 -6.03125 -7.476562 -6.375 -6.65625 -6.46875 C -5.832031 -6.5625 -5.085938 -6.425781 -4.421875 -6.0625 C -3.765625 -5.695312 -3.195312 -5.148438 -2.71875 -4.421875 Z M -4.09375 -3.515625 C -4.539062 -4.191406 -5.097656 -4.566406 -5.765625 -4.640625 C -6.441406 -4.722656 -7.253906 -4.453125 -8.203125 -3.828125 C -9.148438 -3.203125 -9.722656 -2.566406 -9.921875 -1.921875 C -10.128906 -1.273438 -10.007812 -0.613281 -9.5625 0.0625 C -9.113281 0.75 -8.550781 1.125 -7.875 1.1875 C -7.207031 1.257812 -6.398438 0.984375 -5.453125 0.359375 C -4.503906 -0.265625 -3.925781 -0.894531 -3.71875 -1.53125 C -3.519531 -2.164062 -3.644531 -2.828125 -4.09375 -3.515625 Z M -4.09375 -3.515625 "/></g></g></g><g fill="#000000" fill-opacity="1"><g transform="translate(647.078724, 446.168733)"><g/></g></g><g fill="#000000" fill-opacity="1"><g transform="translate(645.18011, 442.894299)"><g><path d="M -10.609375 -0.53125 C -11.210938 -1.945312 -11.304688 -3.1875 -10.890625 -4.25 C -10.472656 -5.3125 -9.539062 -6.15625 -8.09375 -6.78125 C -6.65625 -7.394531 -5.40625 -7.488281 -4.34375 -7.0625 C -3.28125 -6.632812 -2.445312 -5.710938 -1.84375 -4.296875 L -0.484375 -1.140625 L -9.25 2.625 Z M -3.25 -3.546875 C -3.632812 -4.460938 -4.15625 -5.039062 -4.8125 -5.28125 C -5.46875 -5.53125 -6.304688 -5.4375 -7.328125 -5 C -8.359375 -4.5625 -9.003906 -4.019531 -9.265625 -3.375 C -9.535156 -2.738281 -9.476562 -1.960938 -9.09375 -1.046875 L -8.53125 0.25 L -2.6875 -2.25 Z M -3.25 -3.546875 "/></g></g></g><g fill="#000000" fill-opacity="1"><g transform="translate(641.028849, 433.051416)"><g><path d="M -0.34375 -1.1875 L -9.484375 1.5 L -10.5625 -2.171875 C -10.84375 -3.117188 -10.832031 -3.894531 -10.53125 -4.5 C -10.238281 -5.113281 -9.710938 -5.53125 -8.953125 -5.75 C -8.390625 -5.914062 -7.890625 -5.910156 -7.453125 -5.734375 C -7.015625 -5.554688 -6.628906 -5.21875 -6.296875 -4.71875 L -6.15625 -4.765625 C -6.113281 -5.078125 -5.992188 -5.359375 -5.796875 -5.609375 C -5.609375 -5.859375 -5.296875 -6.132812 -4.859375 -6.4375 L -2.390625 -8.15625 L -1.84375 -6.296875 L -4.328125 -4.59375 C -4.566406 -4.425781 -4.742188 -4.257812 -4.859375 -4.09375 C -4.984375 -3.9375 -5.054688 -3.757812 -5.078125 -3.5625 C -5.097656 -3.363281 -5.0625 -3.117188 -4.96875 -2.828125 L -4.6875 -1.875 L -0.875 -3 Z M -6.59375 -3.09375 C -6.851562 -3.976562 -7.390625 -4.296875 -8.203125 -4.046875 C -9.035156 -3.804688 -9.320312 -3.242188 -9.0625 -2.359375 L -8.578125 -0.734375 L -6.109375 -1.46875 Z M -6.59375 -3.09375 "/></g></g></g><g fill="#000000" fill-opacity="1"><g transform="translate(638.371017, 424.025532)"><g><path d="M -0.703125 -5 C -0.484375 -3.695312 -0.625 -2.679688 -1.125 -1.953125 C -1.632812 -1.234375 -2.5 -0.769531 -3.71875 -0.5625 L -9.59375 0.421875 L -9.90625 -1.390625 L -4.03125 -2.375 C -3.351562 -2.488281 -2.867188 -2.738281 -2.578125 -3.125 C -2.296875 -3.519531 -2.210938 -4.054688 -2.328125 -4.734375 C -2.546875 -6.066406 -3.335938 -6.617188 -4.703125 -6.390625 L -10.578125 -5.40625 L -10.890625 -7.21875 L -5.015625 -8.203125 C -3.796875 -8.410156 -2.828125 -8.25 -2.109375 -7.71875 C -1.390625 -7.195312 -0.921875 -6.289062 -0.703125 -5 Z M -0.703125 -5 "/></g></g></g><g fill="#000000" fill-opacity="1"><g transform="translate(636.686541, 413.542256)"><g><path d="M -0.078125 -4.21875 C -0.046875 -3.5625 -0.0976562 -2.972656 -0.234375 -2.453125 C -0.378906 -1.929688 -0.570312 -1.488281 -0.8125 -1.125 C -1.050781 -0.769531 -1.328125 -0.5 -1.640625 -0.3125 L -2.96875 -1.265625 L -2.96875 -1.421875 C -2.5625 -1.742188 -2.238281 -2.128906 -2 -2.578125 C -1.769531 -3.035156 -1.671875 -3.554688 -1.703125 -4.140625 C -1.734375 -4.648438 -1.859375 -5.023438 -2.078125 -5.265625 C -2.304688 -5.515625 -2.609375 -5.628906 -2.984375 -5.609375 C -3.210938 -5.597656 -3.398438 -5.546875 -3.546875 -5.453125 C -3.691406 -5.359375 -3.8125 -5.210938 -3.90625 -5.015625 C -4.007812 -4.816406 -4.09375 -4.554688 -4.15625 -4.234375 L -4.375 -3 C -4.519531 -2.125 -4.804688 -1.460938 -5.234375 -1.015625 C -5.660156 -0.578125 -6.238281 -0.34375 -6.96875 -0.3125 C -7.507812 -0.28125 -7.988281 -0.390625 -8.40625 -0.640625 C -8.832031 -0.890625 -9.171875 -1.265625 -9.421875 -1.765625 C -9.671875 -2.265625 -9.816406 -2.875 -9.859375 -3.59375 C -9.890625 -4.332031 -9.820312 -4.960938 -9.65625 -5.484375 C -9.5 -6.015625 -9.226562 -6.472656 -8.84375 -6.859375 L -7.515625 -5.984375 L -7.515625 -5.828125 C -7.773438 -5.546875 -7.96875 -5.226562 -8.09375 -4.875 C -8.21875 -4.519531 -8.269531 -4.117188 -8.25 -3.671875 C -8.21875 -3.160156 -8.101562 -2.773438 -7.90625 -2.515625 C -7.707031 -2.253906 -7.453125 -2.132812 -7.140625 -2.15625 C -6.835938 -2.164062 -6.601562 -2.269531 -6.4375 -2.46875 C -6.269531 -2.664062 -6.148438 -3 -6.078125 -3.46875 L -5.890625 -4.734375 C -5.742188 -5.660156 -5.445312 -6.34375 -5 -6.78125 C -4.5625 -7.226562 -3.96875 -7.472656 -3.21875 -7.515625 C -2.625 -7.546875 -2.097656 -7.441406 -1.640625 -7.203125 C -1.179688 -6.972656 -0.816406 -6.601562 -0.546875 -6.09375 C -0.273438 -5.59375 -0.117188 -4.96875 -0.078125 -4.21875 Z M -10.328125 -4.4375 L -10.234375 -2.671875 L -11.96875 -1.25 L -12.109375 -1.25 L -12.1875 -2.546875 L -11.5 -3.5 L -12.28125 -4.375 L -12.34375 -5.65625 L -12.203125 -5.65625 Z M -10.328125 -4.4375 "/></g></g></g><g fill="#000000" fill-opacity="1"><g transform="translate(636.27004, 404.806241)"><g><path d="M -9.125 -8.109375 L -7.53125 -8.03125 L -7.671875 -5.296875 L 0.25 -4.890625 L 0.15625 -3.015625 L -7.765625 -3.421875 L -7.90625 -0.671875 L -9.5 -0.75 Z M -9.125 -8.109375 "/></g></g></g><g fill="#000000" fill-opacity="1"><g transform="translate(636.694263, 396.372394)"><g><path d="M 0.890625 -5.59375 L 0.53125 -3.34375 L -9.375 -1.671875 L -9.0625 -3.640625 L -1.6875 -4.796875 L -1.65625 -4.953125 L -8.3125 -8.34375 L -8.015625 -10.265625 Z M 0.890625 -5.59375 "/></g></g></g><g fill="#000000" fill-opacity="1"><g transform="translate(638.181023, 386.94964)"><g><path d="M 1.5625 -4.953125 C 1.332031 -4.117188 0.945312 -3.429688 0.40625 -2.890625 C -0.125 -2.347656 -0.789062 -1.992188 -1.59375 -1.828125 C -2.394531 -1.660156 -3.320312 -1.726562 -4.375 -2.03125 C -5.414062 -2.332031 -6.238281 -2.765625 -6.84375 -3.328125 C -7.445312 -3.890625 -7.820312 -4.539062 -7.96875 -5.28125 C -8.125 -6.019531 -8.085938 -6.804688 -7.859375 -7.640625 C -7.609375 -8.484375 -7.222656 -9.175781 -6.703125 -9.71875 C -6.179688 -10.257812 -5.515625 -10.609375 -4.703125 -10.765625 C -3.890625 -10.929688 -2.960938 -10.863281 -1.921875 -10.5625 C -0.867188 -10.257812 -0.046875 -9.828125 0.546875 -9.265625 C 1.148438 -8.703125 1.53125 -8.050781 1.6875 -7.3125 C 1.851562 -6.582031 1.8125 -5.796875 1.5625 -4.953125 Z M -0.015625 -5.390625 C 0.210938 -6.171875 0.132812 -6.835938 -0.25 -7.390625 C -0.632812 -7.953125 -1.375 -8.390625 -2.46875 -8.703125 C -3.5625 -9.015625 -4.414062 -9.035156 -5.03125 -8.765625 C -5.644531 -8.503906 -6.066406 -7.984375 -6.296875 -7.203125 C -6.515625 -6.421875 -6.429688 -5.75 -6.046875 -5.1875 C -5.671875 -4.632812 -4.9375 -4.203125 -3.84375 -3.890625 C -2.75 -3.578125 -1.890625 -3.550781 -1.265625 -3.8125 C -0.648438 -4.082031 -0.234375 -4.609375 -0.015625 -5.390625 Z M -0.015625 -5.390625 "/></g></g></g><g fill="#000000" fill-opacity="1"><g transform="translate(641.384975, 376.432369)"><g/></g></g><g fill="#000000" fill-opacity="1"><g transform="translate(642.702946, 372.833923)"><g><path d="M 3.140625 -6.671875 L 0.171875 -0.359375 L -1.328125 -1.0625 L -4.859375 -8 L -5.015625 -8.03125 L -6.953125 -3.90625 L -8.375 -4.578125 L -5.5 -10.703125 L -3.984375 -9.984375 L -0.46875 -3.046875 L -0.3125 -3.03125 L 1.71875 -7.34375 Z M 3.140625 -6.671875 "/></g></g></g><g fill="#000000" fill-opacity="1"><g transform="translate(646.237605, 365.293792)"><g><path d="M 4.765625 -7.796875 L 3.734375 -6.109375 L 1.484375 -6.640625 L -0.421875 -3.53125 L 1.078125 -1.78125 L 0.078125 -0.125 L -6.34375 -7.90625 L -5.09375 -9.953125 Z M -4.0625 -7.796875 L -1.515625 -4.78125 L -0.15625 -7.03125 L -3.984375 -7.921875 Z M -4.0625 -7.796875 "/></g></g></g><g fill="#000000" fill-opacity="1"><g transform="translate(651.537163, 356.903337)"><g/></g></g><g fill="#000000" fill-opacity="1"><g transform="translate(653.731305, 353.771844)"><g><path d="M -1.15625 -5.09375 L 0.828125 -3.390625 L 3.765625 -6.859375 L 4.96875 -5.84375 L 0.796875 -0.9375 L -6.46875 -7.109375 L -2.359375 -11.9375 L -1.15625 -10.921875 L -4.03125 -7.53125 L -2.328125 -6.078125 L 0.171875 -9.03125 L 1.34375 -8.046875 Z M -1.15625 -5.09375 "/></g></g></g><g fill="#000000" fill-opacity="1"><g transform="translate(659.273366, 347.103074)"><g><path d="M 2.203125 -2 L 0.90625 -0.828125 L -5.515625 -7.875 L -3.6875 -9.546875 L 2.828125 -5.96875 L 2.9375 -6.0625 L -0.03125 -12.859375 L 1.75 -14.484375 L 8.171875 -7.4375 L 6.859375 -6.234375 L 2.625 -10.890625 L 2.484375 -10.796875 L 5.109375 -4.65625 L 3.9375 -3.59375 L -1.9375 -6.78125 L -2.03125 -6.65625 Z M 2.203125 -2 "/></g></g></g><g fill="#000000" fill-opacity="1"><g transform="translate(668.777621, 338.62672)"><g><path d="M 1.015625 -0.703125 L -4.40625 -8.546875 L -1.0625 -10.859375 C -0.570312 -11.191406 -0.109375 -11.394531 0.328125 -11.46875 C 0.773438 -11.539062 1.179688 -11.5 1.546875 -11.34375 C 1.910156 -11.1875 2.222656 -10.914062 2.484375 -10.53125 C 2.722656 -10.1875 2.847656 -9.820312 2.859375 -9.4375 C 2.878906 -9.0625 2.785156 -8.679688 2.578125 -8.296875 L 2.65625 -8.1875 C 3.238281 -8.382812 3.78125 -8.40625 4.28125 -8.25 C 4.789062 -8.101562 5.210938 -7.789062 5.546875 -7.3125 C 6.066406 -6.550781 6.238281 -5.8125 6.0625 -5.09375 C 5.894531 -4.375 5.367188 -3.707031 4.484375 -3.09375 Z M 0.765625 -7.5 C 1.492188 -8.007812 1.640625 -8.585938 1.203125 -9.234375 C 0.972656 -9.566406 0.710938 -9.75 0.421875 -9.78125 C 0.128906 -9.820312 -0.203125 -9.710938 -0.578125 -9.453125 L -2.03125 -8.453125 L -0.6875 -6.5 Z M 3.484375 -4.21875 C 4.335938 -4.800781 4.492188 -5.484375 3.953125 -6.265625 C 3.421875 -7.046875 2.726562 -7.144531 1.875 -6.5625 L 0.125 -5.34375 L 1.734375 -3 Z M 3.484375 -4.21875 "/></g></g></g><g fill="#000000" fill-opacity="1"><g transform="translate(676.892974, 333.069798)"><g><path d="M 1.09375 -0.578125 L -3.390625 -8.984375 L -0.015625 -10.796875 C 0.859375 -11.253906 1.617188 -11.398438 2.265625 -11.234375 C 2.921875 -11.066406 3.4375 -10.628906 3.8125 -9.921875 C 4.082031 -9.410156 4.175781 -8.921875 4.09375 -8.453125 C 4.019531 -7.992188 3.769531 -7.550781 3.34375 -7.125 L 3.421875 -7 C 3.742188 -7.007812 4.046875 -6.945312 4.328125 -6.8125 C 4.609375 -6.675781 4.9375 -6.425781 5.3125 -6.0625 L 7.5 -4 L 5.796875 -3.09375 L 3.625 -5.15625 C 3.40625 -5.363281 3.203125 -5.507812 3.015625 -5.59375 C 2.835938 -5.675781 2.648438 -5.707031 2.453125 -5.6875 C 2.265625 -5.664062 2.035156 -5.582031 1.765625 -5.4375 L 0.875 -4.96875 L 2.75 -1.46875 Z M 1.703125 -7.078125 C 2.503906 -7.515625 2.703125 -8.109375 2.296875 -8.859375 C 1.890625 -9.617188 1.285156 -9.78125 0.484375 -9.34375 L -1.03125 -8.546875 L 0.1875 -6.28125 Z M 1.703125 -7.078125 "/></g></g></g><g fill="#000000" fill-opacity="1"><g transform="translate(685.359049, 328.69567)"><g><path d="M 2.875 -1.234375 L 1.140625 -0.484375 L -2.609375 -9.25 L -0.875 -10 Z M 2.875 -1.234375 "/></g></g></g><g fill="#000000" fill-opacity="1"><g transform="translate(689.883775, 326.639199)"><g><path d="M 4.984375 -1.4375 C 4.160156 -1.175781 3.375 -1.113281 2.625 -1.25 C 1.882812 -1.394531 1.222656 -1.757812 0.640625 -2.34375 C 0.0546875 -2.925781 -0.398438 -3.738281 -0.734375 -4.78125 C -1.054688 -5.8125 -1.148438 -6.734375 -1.015625 -7.546875 C -0.878906 -8.359375 -0.546875 -9.035156 -0.015625 -9.578125 C 0.503906 -10.117188 1.175781 -10.519531 2 -10.78125 C 2.832031 -11.039062 3.617188 -11.101562 4.359375 -10.96875 C 5.109375 -10.832031 5.773438 -10.472656 6.359375 -9.890625 C 6.941406 -9.304688 7.394531 -8.5 7.71875 -7.46875 C 8.050781 -6.425781 8.148438 -5.492188 8.015625 -4.671875 C 7.878906 -3.859375 7.546875 -3.179688 7.015625 -2.640625 C 6.492188 -2.097656 5.816406 -1.695312 4.984375 -1.4375 Z M 4.484375 -3 C 5.265625 -3.25 5.773438 -3.6875 6.015625 -4.3125 C 6.265625 -4.945312 6.21875 -5.804688 5.875 -6.890625 C 5.53125 -7.960938 5.078125 -8.679688 4.515625 -9.046875 C 3.953125 -9.421875 3.28125 -9.484375 2.5 -9.234375 C 1.726562 -8.984375 1.21875 -8.539062 0.96875 -7.90625 C 0.71875 -7.28125 0.765625 -6.429688 1.109375 -5.359375 C 1.453125 -4.273438 1.90625 -3.546875 2.46875 -3.171875 C 3.039062 -2.804688 3.710938 -2.75 4.484375 -3 Z M 4.484375 -3 "/></g></g></g><g fill="#000000" fill-opacity="1"><g transform="translate(700.296017, 323.426449)"><g><path d="M 1.21875 -9.953125 L 2.75 -2.15625 L 6.953125 -2.984375 L 7.265625 -1.4375 L 1.21875 -0.234375 L -0.625 -9.578125 Z M 1.21875 -9.953125 "/></g></g></g><g fill="#000000" fill-opacity="1"><g transform="translate(708.372269, 321.784788)"><g><path d="M 5.1875 -0.28125 C 4.320312 -0.207031 3.539062 -0.320312 2.84375 -0.625 C 2.15625 -0.9375 1.59375 -1.4375 1.15625 -2.125 C 0.71875 -2.820312 0.453125 -3.71875 0.359375 -4.8125 C 0.273438 -5.894531 0.390625 -6.816406 0.703125 -7.578125 C 1.023438 -8.335938 1.503906 -8.921875 2.140625 -9.328125 C 2.773438 -9.734375 3.523438 -9.972656 4.390625 -10.046875 C 5.265625 -10.117188 6.046875 -10.003906 6.734375 -9.703125 C 7.421875 -9.398438 7.984375 -8.898438 8.421875 -8.203125 C 8.859375 -7.503906 9.117188 -6.613281 9.203125 -5.53125 C 9.296875 -4.4375 9.179688 -3.507812 8.859375 -2.75 C 8.546875 -1.988281 8.070312 -1.40625 7.4375 -1 C 6.8125 -0.59375 6.0625 -0.351562 5.1875 -0.28125 Z M 5.046875 -1.921875 C 5.859375 -1.984375 6.453125 -2.289062 6.828125 -2.84375 C 7.210938 -3.394531 7.359375 -4.238281 7.265625 -5.375 C 7.171875 -6.507812 6.890625 -7.316406 6.421875 -7.796875 C 5.960938 -8.273438 5.328125 -8.484375 4.515625 -8.421875 C 3.703125 -8.359375 3.101562 -8.050781 2.71875 -7.5 C 2.332031 -6.945312 2.1875 -6.101562 2.28125 -4.96875 C 2.375 -3.832031 2.65625 -3.023438 3.125 -2.546875 C 3.59375 -2.066406 4.234375 -1.859375 5.046875 -1.921875 Z M 5.046875 -1.921875 "/></g></g></g><g fill="#000000" fill-opacity="1"><g transform="translate(719.192554, 320.947848)"><g><path d="M 4.625 0.34375 C 3.832031 0.3125 3.148438 0.101562 2.578125 -0.28125 C 2.015625 -0.675781 1.59375 -1.242188 1.3125 -1.984375 C 1.03125 -2.734375 0.914062 -3.648438 0.96875 -4.734375 C 1.007812 -5.816406 1.238281 -6.710938 1.65625 -7.421875 C 2.070312 -8.140625 2.617188 -8.660156 3.296875 -8.984375 C 3.984375 -9.304688 4.769531 -9.445312 5.65625 -9.40625 C 6.570312 -9.363281 7.335938 -9.15625 7.953125 -8.78125 C 8.578125 -8.414062 9.003906 -7.898438 9.234375 -7.234375 L 7.84375 -6.46875 L 7.6875 -6.484375 C 7.507812 -6.921875 7.242188 -7.242188 6.890625 -7.453125 C 6.546875 -7.660156 6.109375 -7.773438 5.578125 -7.796875 C 4.765625 -7.828125 4.128906 -7.59375 3.671875 -7.09375 C 3.210938 -6.601562 2.957031 -5.785156 2.90625 -4.640625 C 2.851562 -3.484375 3.015625 -2.632812 3.390625 -2.09375 C 3.773438 -1.5625 4.367188 -1.273438 5.171875 -1.234375 C 5.847656 -1.203125 6.359375 -1.332031 6.703125 -1.625 C 7.046875 -1.914062 7.234375 -2.367188 7.265625 -2.984375 L 7.28125 -3.40625 L 5.03125 -3.515625 L 5.09375 -5.046875 L 9.203125 -4.859375 L 8.96875 0.40625 L 7.1875 0.328125 L 7.25 -0.953125 L 7.109375 -0.984375 C 6.890625 -0.523438 6.578125 -0.179688 6.171875 0.046875 C 5.765625 0.273438 5.25 0.375 4.625 0.34375 Z M 4.625 0.34375 "/></g></g></g><g fill="#000000" fill-opacity="1"><g transform="translate(729.708108, 321.579539)"><g><path d="M 3.09375 0.421875 L 1.21875 0.171875 L 2.53125 -9.265625 L 4.40625 -9.015625 Z M 3.09375 0.421875 "/></g></g></g><g fill="#000000" fill-opacity="1"><g transform="translate(734.689926, 322.228799)"><g><path d="M 3.234375 0.859375 C 2.441406 0.679688 1.816406 0.382812 1.359375 -0.03125 C 0.898438 -0.445312 0.613281 -0.9375 0.5 -1.5 L 1.796875 -2.515625 L 1.953125 -2.484375 C 2.046875 -2.035156 2.21875 -1.660156 2.46875 -1.359375 C 2.726562 -1.054688 3.066406 -0.859375 3.484375 -0.765625 C 3.941406 -0.671875 4.3125 -0.734375 4.59375 -0.953125 C 4.875 -1.171875 5.082031 -1.578125 5.21875 -2.171875 L 6.5625 -8.3125 L 8.40625 -7.90625 L 7.046875 -1.734375 C 6.804688 -0.617188 6.367188 0.144531 5.734375 0.5625 C 5.109375 0.988281 4.273438 1.085938 3.234375 0.859375 Z M 3.234375 0.859375 "/></g></g></g><g fill="#000000" fill-opacity="1"><g transform="translate(742.726599, 323.96122)"><g><path d="M 4.734375 1.765625 C 3.484375 1.347656 2.660156 0.738281 2.265625 -0.0625 C 1.867188 -0.863281 1.867188 -1.847656 2.265625 -3.015625 L 4.1875 -8.640625 L 5.9375 -8.046875 L 4.015625 -2.421875 C 3.796875 -1.765625 3.785156 -1.21875 3.984375 -0.78125 C 4.191406 -0.34375 4.617188 -0.015625 5.265625 0.203125 C 6.546875 0.640625 7.410156 0.203125 7.859375 -1.109375 L 9.78125 -6.734375 L 11.515625 -6.125 L 9.59375 -0.5 C 9.195312 0.664062 8.597656 1.441406 7.796875 1.828125 C 6.992188 2.210938 5.972656 2.191406 4.734375 1.765625 Z M 4.734375 1.765625 "/></g></g></g><g fill="#000000" fill-opacity="1"><g transform="translate(752.813028, 327.592419)"><g/></g></g><g fill="#000000" fill-opacity="1"><g transform="translate(756.384624, 329.171483)"><g><path d="M 2.78125 1.40625 L 1.09375 0.5625 L 5.40625 -7.9375 L 7.09375 -7.09375 Z M 2.78125 1.40625 "/></g></g></g><g fill="#000000" fill-opacity="1"><g transform="translate(760.936699, 331.519753)"><g/></g></g><g fill="#000000" fill-opacity="1"><g transform="translate(764.281174, 333.351205)"><g><path d="M 9.453125 -5.078125 C 10.003906 -4.691406 10.410156 -4.253906 10.671875 -3.765625 C 10.929688 -3.285156 11.035156 -2.789062 10.984375 -2.28125 C 10.941406 -1.769531 10.75 -1.269531 10.40625 -0.78125 C 10.070312 -0.289062 9.675781 0.0664062 9.21875 0.296875 C 8.757812 0.523438 8.253906 0.601562 7.703125 0.53125 C 7.160156 0.46875 6.613281 0.242188 6.0625 -0.140625 L 4.578125 -1.15625 L 2.578125 1.765625 L 1.015625 0.703125 L 6.40625 -7.15625 Z M 6.71875 -1.515625 C 7.570312 -0.921875 8.273438 -1.035156 8.828125 -1.859375 C 9.398438 -2.679688 9.257812 -3.390625 8.40625 -3.984375 L 7.125 -4.859375 L 5.4375 -2.390625 Z M 6.71875 -1.515625 "/></g></g></g><g fill="#000000" fill-opacity="1"><g transform="translate(771.88694, 338.542506)"><g><path d="M 3.796875 3.53125 C 3.148438 2.957031 2.695312 2.316406 2.4375 1.609375 C 2.175781 0.898438 2.140625 0.148438 2.328125 -0.640625 C 2.523438 -1.441406 2.984375 -2.253906 3.703125 -3.078125 C 4.421875 -3.890625 5.164062 -4.445312 5.9375 -4.75 C 6.707031 -5.050781 7.457031 -5.113281 8.1875 -4.9375 C 8.925781 -4.769531 9.617188 -4.398438 10.265625 -3.828125 C 10.929688 -3.253906 11.394531 -2.613281 11.65625 -1.90625 C 11.925781 -1.195312 11.957031 -0.445312 11.75 0.34375 C 11.550781 1.144531 11.09375 1.953125 10.375 2.765625 C 9.65625 3.585938 8.910156 4.148438 8.140625 4.453125 C 7.378906 4.765625 6.628906 4.832031 5.890625 4.65625 C 5.160156 4.476562 4.460938 4.101562 3.796875 3.53125 Z M 4.875 2.296875 C 5.488281 2.835938 6.128906 3.050781 6.796875 2.9375 C 7.460938 2.832031 8.171875 2.351562 8.921875 1.5 C 9.671875 0.644531 10.054688 -0.113281 10.078125 -0.78125 C 10.097656 -1.457031 9.800781 -2.066406 9.1875 -2.609375 C 8.582031 -3.140625 7.945312 -3.351562 7.28125 -3.25 C 6.613281 -3.144531 5.90625 -2.664062 5.15625 -1.8125 C 4.40625 -0.957031 4.019531 -0.191406 4 0.484375 C 3.976562 1.160156 4.269531 1.765625 4.875 2.296875 Z M 4.875 2.296875 "/></g></g></g><g fill="#000000" fill-opacity="1"><g transform="translate(780.004616, 345.806538)"><g><path d="M 12.1875 -0.71875 L 11.015625 0.34375 L 9.171875 -1.703125 L 3.28125 3.625 L 2.015625 2.234375 L 7.90625 -3.09375 L 6.0625 -5.125 L 7.234375 -6.1875 Z M 12.1875 -0.71875 "/></g></g></g><g fill="#000000" fill-opacity="1"><g transform="translate(785.669232, 352.079679)"><g><path d="M 10.609375 -1.625 C 11.003906 -1.082031 11.242188 -0.539062 11.328125 0 C 11.410156 0.53125 11.34375 1.03125 11.125 1.5 C 10.90625 1.96875 10.554688 2.378906 10.078125 2.734375 C 9.597656 3.078125 9.101562 3.28125 8.59375 3.34375 C 8.082031 3.40625 7.582031 3.3125 7.09375 3.0625 C 6.601562 2.820312 6.160156 2.429688 5.765625 1.890625 L 4.703125 0.4375 L 1.84375 2.53125 L 0.734375 1 L 8.4375 -4.609375 Z M 6.828125 0.8125 C 7.441406 1.644531 8.148438 1.769531 8.953125 1.1875 C 9.753906 0.59375 9.847656 -0.117188 9.234375 -0.953125 L 8.328125 -2.203125 L 5.921875 -0.4375 Z M 6.828125 0.8125 "/></g></g></g><g fill="#000000" fill-opacity="1"><g transform="translate(791.111259, 359.50783)"><g><path d="M 2.40625 4.59375 C 1.988281 3.832031 1.769531 3.078125 1.75 2.328125 C 1.738281 1.578125 1.957031 0.851562 2.40625 0.15625 C 2.851562 -0.53125 3.554688 -1.140625 4.515625 -1.671875 C 5.460938 -2.203125 6.347656 -2.476562 7.171875 -2.5 C 8.003906 -2.53125 8.738281 -2.34375 9.375 -1.9375 C 10.007812 -1.53125 10.535156 -0.945312 10.953125 -0.1875 C 11.378906 0.570312 11.601562 1.328125 11.625 2.078125 C 11.644531 2.835938 11.425781 3.554688 10.96875 4.234375 C 10.507812 4.921875 9.804688 5.53125 8.859375 6.0625 C 7.898438 6.59375 7.007812 6.875 6.1875 6.90625 C 5.363281 6.945312 4.632812 6.757812 4 6.34375 C 3.363281 5.9375 2.832031 5.351562 2.40625 4.59375 Z M 3.84375 3.796875 C 4.238281 4.503906 4.765625 4.914062 5.421875 5.03125 C 6.085938 5.144531 6.914062 4.925781 7.90625 4.375 C 8.894531 3.820312 9.507812 3.234375 9.75 2.609375 C 10 1.984375 9.925781 1.316406 9.53125 0.609375 C 9.132812 -0.0976562 8.601562 -0.507812 7.9375 -0.625 C 7.28125 -0.75 6.457031 -0.535156 5.46875 0.015625 C 4.476562 0.566406 3.859375 1.15625 3.609375 1.78125 C 3.367188 2.414062 3.445312 3.085938 3.84375 3.796875 Z M 3.84375 3.796875 "/></g></g></g><g fill="#000000" fill-opacity="1"><g transform="translate(796.424545, 368.922446)"><g><path d="M 1.078125 2.765625 L 0.453125 1.15625 L 9.34375 -2.296875 L 10.234375 0 L 4.5625 4.78125 L 4.609375 4.921875 L 12.015625 4.59375 L 12.890625 6.84375 L 4 10.296875 L 3.359375 8.640625 L 9.234375 6.359375 L 9.1875 6.203125 L 2.5 6.4375 L 1.9375 4.96875 L 7.015625 0.625 L 6.953125 0.484375 Z M 1.078125 2.765625 "/></g></g></g><g fill="#000000" fill-opacity="1"><g transform="translate(800.942857, 380.805925)"><g><path d="M 1.046875 5.078125 C 0.847656 4.234375 0.847656 3.445312 1.046875 2.71875 C 1.242188 1.988281 1.65625 1.351562 2.28125 0.8125 C 2.90625 0.28125 3.75 -0.109375 4.8125 -0.359375 C 5.863281 -0.609375 6.789062 -0.628906 7.59375 -0.421875 C 8.394531 -0.222656 9.046875 0.15625 9.546875 0.71875 C 10.046875 1.289062 10.394531 2 10.59375 2.84375 C 10.789062 3.695312 10.789062 4.488281 10.59375 5.21875 C 10.40625 5.945312 9.992188 6.578125 9.359375 7.109375 C 8.734375 7.640625 7.894531 8.03125 6.84375 8.28125 C 5.78125 8.53125 4.847656 8.554688 4.046875 8.359375 C 3.242188 8.160156 2.59375 7.773438 2.09375 7.203125 C 1.59375 6.640625 1.242188 5.929688 1.046875 5.078125 Z M 2.640625 4.703125 C 2.828125 5.492188 3.222656 6.035156 3.828125 6.328125 C 4.441406 6.628906 5.300781 6.648438 6.40625 6.390625 C 7.507812 6.128906 8.265625 5.726562 8.671875 5.1875 C 9.078125 4.65625 9.1875 3.992188 9 3.203125 C 8.8125 2.410156 8.414062 1.863281 7.8125 1.5625 C 7.207031 1.269531 6.351562 1.253906 5.25 1.515625 C 4.144531 1.773438 3.382812 2.171875 2.96875 2.703125 C 2.5625 3.242188 2.453125 3.910156 2.640625 4.703125 Z M 2.640625 4.703125 "/></g></g></g><g fill="#000000" fill-opacity="1"><g transform="translate(803.383104, 391.381642)"><g><path d="M 0.34375 4.609375 C 0.257812 3.828125 0.367188 3.125 0.671875 2.5 C 0.972656 1.882812 1.46875 1.382812 2.15625 1 C 2.851562 0.613281 3.738281 0.363281 4.8125 0.25 C 5.894531 0.132812 6.820312 0.226562 7.59375 0.53125 C 8.363281 0.832031 8.957031 1.296875 9.375 1.921875 C 9.800781 2.554688 10.0625 3.3125 10.15625 4.1875 C 10.25 5.101562 10.160156 5.894531 9.890625 6.5625 C 9.617188 7.226562 9.160156 7.726562 8.515625 8.0625 L 7.5625 6.78125 L 7.546875 6.625 C 7.941406 6.382812 8.21875 6.078125 8.375 5.703125 C 8.539062 5.328125 8.597656 4.875 8.546875 4.34375 C 8.460938 3.539062 8.140625 2.945312 7.578125 2.5625 C 7.015625 2.1875 6.160156 2.054688 5.015625 2.171875 C 3.867188 2.296875 3.054688 2.585938 2.578125 3.046875 C 2.097656 3.503906 1.898438 4.128906 1.984375 4.921875 C 2.054688 5.597656 2.257812 6.082031 2.59375 6.375 C 2.9375 6.675781 3.414062 6.796875 4.03125 6.734375 L 4.453125 6.6875 L 4.21875 4.4375 L 5.734375 4.28125 L 6.171875 8.390625 L 0.9375 8.9375 L 0.75 7.140625 L 2.03125 7 L 2.03125 6.875 C 1.550781 6.726562 1.164062 6.46875 0.875 6.09375 C 0.582031 5.726562 0.40625 5.234375 0.34375 4.609375 Z M 0.34375 4.609375 "/></g></g></g><g fill="#000000" fill-opacity="1"><g transform="translate(804.452997, 401.738617)"><g><path d="M -0.0625 3.0625 L -0.03125 1.234375 L 9.5 1.453125 L 9.453125 3.609375 L 3.234375 7.296875 L 3.25 7.46875 L 9.359375 7.609375 L 9.328125 9.421875 L -0.203125 9.203125 L -0.15625 7.265625 L 6.46875 3.359375 L 6.46875 3.203125 Z M -0.0625 3.0625 "/></g></g></g><g fill="#000000" fill-opacity="1"><g transform="translate(804.171549, 412.645435)"><g><path d="M -0.890625 4.96875 C -0.691406 3.675781 -0.238281 2.757812 0.46875 2.21875 C 1.1875 1.6875 2.148438 1.507812 3.359375 1.6875 L 9.25 2.578125 L 8.96875 4.40625 L 3.078125 3.515625 C 2.398438 3.410156 1.863281 3.5 1.46875 3.78125 C 1.070312 4.0625 0.828125 4.535156 0.734375 5.203125 C 0.523438 6.546875 1.101562 7.320312 2.46875 7.53125 L 8.359375 8.421875 L 8.09375 10.25 L 2.203125 9.359375 C 0.992188 9.179688 0.128906 8.726562 -0.390625 8 C -0.921875 7.28125 -1.085938 6.269531 -0.890625 4.96875 Z M -0.890625 4.96875 "/></g></g></g><g fill="#000000" fill-opacity="1"><g transform="translate(802.492296, 423.132379)"><g><path d="M 7.21875 9.859375 L 5.671875 9.4375 L 6.390625 6.78125 L -1.265625 4.71875 L -0.78125 2.90625 L 6.875 4.96875 L 7.59375 2.3125 L 9.140625 2.734375 Z M 7.21875 9.859375 "/></g></g></g><g fill="#000000" fill-opacity="1"><g transform="translate(800.332682, 431.274411)"><g><path d="M -1.984375 4.640625 C -1.492188 3.421875 -0.84375 2.628906 -0.03125 2.265625 C 0.769531 1.910156 1.742188 1.957031 2.890625 2.40625 L 8.421875 4.59375 L 7.75 6.296875 L 2.21875 4.109375 C 1.582031 3.859375 1.035156 3.828125 0.578125 4.015625 C 0.128906 4.203125 -0.21875 4.609375 -0.46875 5.234375 C -0.96875 6.492188 -0.570312 7.378906 0.71875 7.890625 L 6.25 10.078125 L 5.578125 11.796875 L 0.046875 9.609375 C -1.097656 9.160156 -1.84375 8.523438 -2.1875 7.703125 C -2.53125 6.890625 -2.460938 5.867188 -1.984375 4.640625 Z M -1.984375 4.640625 "/></g></g></g><g fill="#000000" fill-opacity="1"><g transform="translate(796.226277, 441.177832)"><g/></g></g><g fill="#000000" fill-opacity="1"><g transform="translate(794.658944, 444.61596)"><g><path d="M -2.84375 4.34375 C -2.382812 3.601562 -1.828125 3.039062 -1.171875 2.65625 C -0.515625 2.28125 0.21875 2.125 1.03125 2.1875 C 1.851562 2.25 2.734375 2.566406 3.671875 3.140625 C 4.597656 3.703125 5.273438 4.335938 5.703125 5.046875 C 6.128906 5.753906 6.316406 6.484375 6.265625 7.234375 C 6.222656 7.984375 5.972656 8.726562 5.515625 9.46875 C 5.054688 10.207031 4.5 10.769531 3.84375 11.15625 C 3.195312 11.550781 2.460938 11.710938 1.640625 11.640625 C 0.828125 11.578125 -0.0390625 11.265625 -0.96875 10.703125 C -1.90625 10.128906 -2.585938 9.488281 -3.015625 8.78125 C -3.453125 8.082031 -3.644531 7.351562 -3.59375 6.59375 C -3.550781 5.832031 -3.300781 5.082031 -2.84375 4.34375 Z M -1.4375 5.203125 C -1.863281 5.890625 -1.960938 6.550781 -1.734375 7.1875 C -1.515625 7.832031 -0.921875 8.453125 0.046875 9.046875 C 1.015625 9.640625 1.828125 9.890625 2.484375 9.796875 C 3.148438 9.703125 3.695312 9.3125 4.125 8.625 C 4.550781 7.925781 4.65625 7.257812 4.4375 6.625 C 4.21875 6 3.625 5.390625 2.65625 4.796875 C 1.6875 4.203125 0.867188 3.945312 0.203125 4.03125 C -0.460938 4.113281 -1.007812 4.503906 -1.4375 5.203125 Z M -1.4375 5.203125 "/></g></g></g><g fill="#000000" fill-opacity="1"><g transform="translate(788.897877, 453.843595)"><g><path d="M 4.40625 9.78125 C 3.988281 10.3125 3.53125 10.6875 3.03125 10.90625 C 2.53125 11.132812 2.023438 11.203125 1.515625 11.109375 C 1.003906 11.023438 0.519531 10.800781 0.0625 10.4375 C -0.40625 10.0625 -0.734375 9.640625 -0.921875 9.171875 C -1.117188 8.703125 -1.164062 8.195312 -1.0625 7.65625 C -0.957031 7.125 -0.695312 6.59375 -0.28125 6.0625 L 0.84375 4.65625 L -1.9375 2.453125 L -0.765625 0.96875 L 6.703125 6.890625 Z M 1.046875 6.796875 C 0.398438 7.617188 0.46875 8.335938 1.25 8.953125 C 2.03125 9.566406 2.742188 9.460938 3.390625 8.640625 L 4.359375 7.4375 L 2.015625 5.59375 Z M 1.046875 6.796875 "/></g></g></g><g fill="#000000" fill-opacity="1"><g transform="translate(783.097484, 461.070272)"><g><path d="M 4.625 8.90625 L -1.0625 3.34375 L -4.046875 6.40625 L -5.171875 5.296875 L -0.859375 0.875 L 5.953125 7.546875 Z M 4.625 8.90625 "/></g></g></g><g fill="#000000" fill-opacity="1"><g transform="translate(777.374459, 466.990441)"><g><path d="M -4.125 3.15625 C -3.445312 2.613281 -2.734375 2.269531 -1.984375 2.125 C -1.242188 1.988281 -0.5 2.082031 0.25 2.40625 C 1.007812 2.726562 1.734375 3.316406 2.421875 4.171875 C 3.109375 5.003906 3.535156 5.828125 3.703125 6.640625 C 3.867188 7.453125 3.804688 8.207031 3.515625 8.90625 C 3.222656 9.601562 2.738281 10.222656 2.0625 10.765625 C 1.382812 11.316406 0.675781 11.664062 -0.0625 11.8125 C -0.800781 11.957031 -1.546875 11.863281 -2.296875 11.53125 C -3.054688 11.195312 -3.78125 10.613281 -4.46875 9.78125 C -5.15625 8.925781 -5.582031 8.09375 -5.75 7.28125 C -5.925781 6.476562 -5.867188 5.726562 -5.578125 5.03125 C -5.285156 4.332031 -4.800781 3.707031 -4.125 3.15625 Z M -3.078125 4.421875 C -3.703125 4.941406 -4.015625 5.535156 -4.015625 6.203125 C -4.023438 6.878906 -3.675781 7.660156 -2.96875 8.546875 C -2.25 9.421875 -1.554688 9.925781 -0.890625 10.0625 C -0.234375 10.207031 0.40625 10.019531 1.03125 9.5 C 1.664062 8.988281 1.984375 8.394531 1.984375 7.71875 C 1.992188 7.039062 1.640625 6.265625 0.921875 5.390625 C 0.210938 4.503906 -0.46875 3.992188 -1.125 3.859375 C -1.789062 3.722656 -2.441406 3.910156 -3.078125 4.421875 Z M -3.078125 4.421875 "/></g></g></g><g fill="#000000" fill-opacity="1"><g transform="translate(768.930568, 473.806069)"><g><path d="M 1.046875 10.5625 C -0.265625 11.375 -1.476562 11.65625 -2.59375 11.40625 C -3.707031 11.15625 -4.675781 10.359375 -5.5 9.015625 C -6.332031 7.679688 -6.613281 6.457031 -6.34375 5.34375 C -6.070312 4.226562 -5.28125 3.265625 -3.96875 2.453125 L -1.046875 0.65625 L 3.96875 8.765625 Z M -3.03125 3.734375 C -3.875 4.253906 -4.367188 4.851562 -4.515625 5.53125 C -4.660156 6.21875 -4.4375 7.035156 -3.84375 7.984375 C -3.257812 8.929688 -2.628906 9.488281 -1.953125 9.65625 C -1.273438 9.832031 -0.515625 9.660156 0.328125 9.140625 L 1.53125 8.390625 L -1.828125 2.984375 Z M -3.03125 3.734375 "/></g></g></g><g fill="#000000" fill-opacity="1"><g transform="translate(759.861743, 479.398577)"><g><path d="M -2.78125 1.265625 L -1.125 0.515625 L 2.8125 9.1875 L 0.84375 10.078125 L -5.171875 6.078125 L -5.3125 6.171875 L -2.796875 11.734375 L -4.4375 12.484375 L -8.375 3.8125 L -6.609375 3 L -0.234375 7.28125 L -0.078125 7.21875 Z M -2.78125 1.265625 "/></g></g></g><g fill="#000000" fill-opacity="1"><g transform="translate(749.839227, 483.83409)"><g><path d="M -3.234375 0.890625 C -2.453125 0.640625 -1.757812 0.578125 -1.15625 0.703125 C -0.550781 0.835938 -0.0546875 1.113281 0.328125 1.53125 L -0.28125 3.078125 L -0.4375 3.125 C -0.726562 2.78125 -1.0625 2.539062 -1.4375 2.40625 C -1.8125 2.28125 -2.203125 2.285156 -2.609375 2.421875 C -3.054688 2.554688 -3.347656 2.789062 -3.484375 3.125 C -3.617188 3.46875 -3.59375 3.929688 -3.40625 4.515625 L -1.46875 10.484375 L -3.265625 11.0625 L -5.21875 5.0625 C -5.5625 3.96875 -5.566406 3.078125 -5.234375 2.390625 C -4.910156 1.710938 -4.242188 1.210938 -3.234375 0.890625 Z M -3.234375 0.890625 "/></g></g></g><g fill="#000000" fill-opacity="1"><g transform="translate(742.032333, 486.396776)"><g><path d="M -4.984375 0.859375 C -3.691406 0.597656 -2.671875 0.710938 -1.921875 1.203125 C -1.171875 1.691406 -0.671875 2.535156 -0.421875 3.734375 L 0.75 9.578125 L -1.0625 9.9375 L -2.234375 4.09375 C -2.378906 3.425781 -2.648438 2.953125 -3.046875 2.671875 C -3.453125 2.398438 -3.988281 2.332031 -4.65625 2.46875 C -5.976562 2.738281 -6.5 3.550781 -6.21875 4.90625 L -5.046875 10.75 L -6.859375 11.125 L -8.03125 5.28125 C -8.28125 4.082031 -8.15625 3.109375 -7.65625 2.359375 C -7.15625 1.617188 -6.265625 1.117188 -4.984375 0.859375 Z M -4.984375 0.859375 "/></g></g></g></svg>